<svg width="20" height="20" viewBox="0 0 20 20" fill="none" xmlns="http://www.w3.org/2000/svg">
<path d="M10.0001 13.3333C9.89047 13.3339 9.78175 13.3129 9.68022 13.2715C9.57869 13.23 9.48634 13.1689 9.40847 13.0916L6.07514 9.75832C5.93861 9.5989 5.86728 9.39383 5.87538 9.1841C5.88348 8.97437 5.97042 8.77543 6.11883 8.62701C6.26725 8.4786 6.4662 8.39166 6.67593 8.38356C6.88566 8.37546 7.09072 8.44679 7.25014 8.58332L10.0001 11.325L12.7418 8.58332C12.9012 8.44679 13.1063 8.37546 13.316 8.38356C13.5257 8.39166 13.7247 8.4786 13.8731 8.62701C14.0215 8.77543 14.1085 8.97437 14.1166 9.1841C14.1247 9.39383 14.0533 9.5989 13.9168 9.75832L10.5835 13.0916C10.4283 13.2456 10.2188 13.3324 10.0001 13.3333Z" fill="black"/>
<path d="M10.0001 13.3334C9.77907 13.3334 9.56711 13.2456 9.41083 13.0893C9.25455 12.933 9.16675 12.7211 9.16675 12.5V4.16671C9.16675 3.94569 9.25455 3.73373 9.41083 3.57745C9.56711 3.42117 9.77907 3.33337 10.0001 3.33337C10.2211 3.33337 10.4331 3.42117 10.5893 3.57745C10.7456 3.73373 10.8334 3.94569 10.8334 4.16671V12.5C10.8334 12.7211 10.7456 12.933 10.5893 13.0893C10.4331 13.2456 10.2211 13.3334 10.0001 13.3334Z" fill="black"/>
<path d="M15.5 16.6667H3.83333C3.61232 16.6667 3.40036 16.5789 3.24408 16.4226C3.0878 16.2663 3 16.0544 3 15.8333C3 15.6123 3.0878 15.4004 3.24408 15.2441C3.40036 15.0878 3.61232 15 3.83333 15H15.5C15.721 15 15.933 15.0878 16.0893 15.2441C16.2455 15.4004 16.3333 15.6123 16.3333 15.8333C16.3333 16.0544 16.2455 16.2663 16.0893 16.4226C15.933 16.5789 15.721 16.6667 15.5 16.6667Z" fill="black"/>
</svg>
