<svg width="17" height="20" viewBox="0 0 17 20" fill="none" xmlns="http://www.w3.org/2000/svg">
<path d="M13.6188 0.346585C11.8654 0.346585 10.7238 0.0203874 8.90928 0.0203874C3.01733 0.0203874 0.285423 3.36391 0.285423 6.7686C0.285423 8.76656 1.24363 9.43935 3.09888 9.43935C2.97655 9.15392 2.73191 8.82773 2.73191 7.40061C2.73191 3.42508 4.24057 2.263 6.15698 2.18145C6.15698 2.18145 4.58716 17.6555 0 19.5107V20H3.28236H6.17737L8.27727 10.0102H12.1305L12.9867 7.50255H8.80734L9.82671 2.69113C10.9888 2.93578 12.1101 3.16004 13.0887 3.16004C14.2915 3.16004 15.4128 2.79307 16.0245 0C15.2905 0.265036 14.4954 0.346585 13.6188 0.346585Z" fill="#7E8C9F"/>
</svg>
