<svg width="25" height="25" viewBox="0 0 25 25" fill="none" xmlns="http://www.w3.org/2000/svg">
<path d="M4.6674 16.1324C7.2724 18.3349 9.9824 19.4999 12.4999 19.4999C13.3849 19.4956 14.2647 19.3643 15.1124 19.1099C15.2397 19.0725 15.3469 18.986 15.4104 18.8695C15.474 18.753 15.4886 18.616 15.4511 18.4887C15.4137 18.3614 15.3272 18.2542 15.2107 18.1907C15.0942 18.1271 14.9572 18.1125 14.8299 18.1499C14.074 18.3775 13.2893 18.4954 12.4999 18.4999C7.6624 18.4999 3.5149 13.7499 2.5124 12.4999C3.47417 11.3155 4.55947 10.2369 5.7499 9.28245C5.80128 9.24075 5.84394 9.18935 5.87546 9.13116C5.90697 9.07298 5.92671 9.00916 5.93356 8.94335C5.94041 8.87753 5.93423 8.81101 5.91537 8.74759C5.89651 8.68417 5.86535 8.62508 5.82365 8.5737C5.78196 8.52232 5.73055 8.47965 5.67237 8.44814C5.61418 8.41663 5.55036 8.39688 5.48455 8.39004C5.41874 8.38319 5.35222 8.38937 5.28879 8.40823C5.22537 8.42709 5.16628 8.45825 5.1149 8.49995C3.75754 9.58387 2.53619 10.8279 1.4774 12.2049C1.41483 12.2906 1.3811 12.3939 1.3811 12.4999C1.3811 12.606 1.41483 12.7093 1.4774 12.7949C2.41746 14.0191 3.487 15.1381 4.6674 16.1324Z" fill="#7E8C9F"/>
<path d="M23.5224 12.205C22.5824 10.9809 21.5128 9.8619 20.3324 8.86752C17.7249 6.66502 15.0174 5.50002 12.4999 5.50002C10.7693 5.53735 9.07551 6.00657 7.5724 6.86502L5.1199 4.41252C5.02608 4.3187 4.89883 4.26599 4.76615 4.26599C4.63347 4.26599 4.50622 4.3187 4.4124 4.41252C4.31858 4.50634 4.26587 4.63359 4.26587 4.76627C4.26587 4.89895 4.31858 5.0262 4.4124 5.12002L19.8799 20.5875C19.9264 20.634 19.9815 20.6708 20.0422 20.696C20.1029 20.7211 20.168 20.734 20.2337 20.734C20.2993 20.734 20.3644 20.7211 20.4251 20.696C20.4858 20.6708 20.5409 20.634 20.5874 20.5875C20.6339 20.5411 20.6707 20.4859 20.6958 20.4252C20.721 20.3645 20.7339 20.2995 20.7339 20.2338C20.7339 20.1681 20.721 20.103 20.6958 20.0423C20.6707 19.9816 20.6339 19.9265 20.5874 19.88L18.3224 17.615C20.3145 16.3122 22.0725 14.6827 23.5224 12.795C23.585 12.7094 23.6187 12.6061 23.6187 12.5C23.6187 12.394 23.585 12.2907 23.5224 12.205ZM15.0899 14.3825L10.6149 9.90752C11.2318 9.45699 11.9894 9.2418 12.751 9.30079C13.5126 9.35978 14.2281 9.68907 14.7682 10.2292C15.3084 10.7694 15.6376 11.4848 15.6966 12.2464C15.7556 13.008 15.5404 13.7656 15.0899 14.3825ZM17.5899 16.8825L15.8049 15.1C16.4393 14.2914 16.7556 13.2784 16.694 12.2524C16.6324 11.2265 16.1972 10.2586 15.4706 9.53168C14.744 8.80476 13.7763 8.36913 12.7504 8.3071C11.7244 8.24507 10.7113 8.56094 9.9024 9.19502L8.3124 7.60502C9.60091 6.90997 11.0362 6.53122 12.4999 6.50002C17.3374 6.50002 21.4849 11.25 22.4849 12.5C21.1026 14.2171 19.4512 15.6988 17.5949 16.8875L17.5899 16.8825Z" fill="#7E8C9F"/>
<path d="M13.0002 16.205C13.0002 16.0724 12.9475 15.9452 12.8537 15.8514C12.76 15.7577 12.6328 15.705 12.5002 15.705C11.6506 15.7037 10.8361 15.3656 10.2353 14.7648C9.63458 14.164 9.29649 13.3496 9.29517 12.5C9.29517 12.3674 9.24249 12.2402 9.14872 12.1464C9.05495 12.0527 8.92777 12 8.79517 12C8.66256 12 8.53538 12.0527 8.44161 12.1464C8.34784 12.2402 8.29517 12.3674 8.29517 12.5C8.29649 13.6148 8.73994 14.6836 9.52824 15.4719C10.3165 16.2602 11.3853 16.7037 12.5002 16.705C12.6328 16.705 12.76 16.6523 12.8537 16.5586C12.9475 16.4648 13.0002 16.3376 13.0002 16.205Z" fill="#7E8C9F"/>
</svg>
