<svg width="20" height="20" viewBox="0 0 20 20" fill="none" xmlns="http://www.w3.org/2000/svg">
<path d="M4.16659 16.6667H15.8333C16.0543 16.6667 16.2662 16.5789 16.4225 16.4226C16.5788 16.2663 16.6666 16.0544 16.6666 15.8333C16.6666 15.6123 16.5788 15.4004 16.4225 15.2441C16.2662 15.0878 16.0543 15 15.8333 15H4.16659C3.94557 15 3.73361 15.0878 3.57733 15.2441C3.42105 15.4004 3.33325 15.6123 3.33325 15.8333C3.33325 16.0544 3.42105 16.2663 3.57733 16.4226C3.73361 16.5789 3.94557 16.6667 4.16659 16.6667Z" fill="black"/>
<path d="M9.16317 13.3333C9.38419 13.3333 9.59615 13.2455 9.75243 13.0892C9.90871 12.9329 9.99651 12.721 9.99651 12.5V8.3333H12.4965C12.662 8.33427 12.8241 8.28591 12.962 8.19441C13.0999 8.10291 13.2075 7.97241 13.271 7.81954C13.3345 7.66667 13.351 7.49836 13.3184 7.33607C13.2858 7.17378 13.2057 7.02486 13.0882 6.9083L9.75484 3.57497C9.5987 3.41976 9.38749 3.33264 9.16734 3.33264C8.94719 3.33264 8.73598 3.41976 8.57984 3.57497L5.24651 6.9083C5.12949 7.02436 5.04951 7.17251 5.01669 7.33403C4.98387 7.49554 4.99968 7.66315 5.06212 7.81568C5.12455 7.96821 5.23082 8.09879 5.36747 8.19093C5.50412 8.28307 5.66503 8.33261 5.82984 8.3333H8.32984V12.5C8.32984 12.721 8.41764 12.9329 8.57392 13.0892C8.7302 13.2455 8.94216 13.3333 9.16317 13.3333Z" fill="black"/>
</svg>
