<svg height='100px' width='100px'  fill="#333333" xmlns="http://www.w3.org/2000/svg" xmlns:xlink="http://www.w3.org/1999/xlink" viewBox="0 0 100 100" version="1.1" x="0px" y="0px"><title>158</title><desc>Created with Sketch.</desc><g stroke="none" stroke-width="1" fill="none" fill-rule="evenodd"><path d="M73.2,89 L54,89 C41.4215737,89 30.7111257,80.0049167 28.4386063,67.778899 C28.2367511,66.6929302 28.9534667,65.6489425 30.0394356,65.4470873 C31.1254044,65.2452321 32.169392,65.9619478 32.3712472,67.0479166 C34.2931189,77.3874703 43.3573599,85 54,85 L73.2,85 C74.9673726,85 76.7059149,84.7919943 78.3911835,84.3844672 C78.9011648,84.2611449 79.4391835,84.3431654 79.8892518,84.6128465 L92.2662854,92.0291697 C92.7400327,92.3130392 93.3542025,92.1591129 93.6380721,91.6853656 C93.7812183,91.4464702 93.8182561,91.1587021 93.7402682,90.8913452 L90.1091673,78.4432586 C89.9277387,77.8212878 90.0588385,77.1499642 90.4609373,76.6419479 C93.513322,72.7855292 95.2,68.0241983 95.2,63 C95.2,56.6532718 92.5004114,50.746576 87.861038,46.5968237 C87.0377555,45.8604272 86.9673205,44.5960576 87.703717,43.7727752 C88.4401135,42.9494927 89.7044831,42.8790577 90.5277655,43.6154542 C96.0068127,48.5162644 99.2,55.5029534 99.2,63 C99.2,68.5762923 97.4372091,73.8881752 94.2311491,78.2899445 L97.5802343,89.7712289 C97.9701737,91.1080135 97.7849846,92.546854 97.0692536,93.7413309 C95.6499058,96.1100674 92.5790566,96.879699 90.2103201,95.4603512 L78.5191781,88.4550145 C76.7823441,88.8162487 75.0026018,89 73.2,89 Z" fill="#333333" fill-rule="nonzero"></path><path d="M8.8528225,68.8283728 L26.9856301,56.8620109 L28.3234538,56.9469548 C28.8795596,56.9822642 29.4385745,57 30,57 L54,57 C68.3594035,57 80,45.3594035 80,31 C80,16.6405965 68.3594035,5 54,5 L30,5 C15.6405965,5 4,16.6405965 4,31 C4,37.2614031 6.21578574,43.1700828 10.1892725,47.8394239 L11.4852958,49.3624124 L7.32659638,67.7734058 C7.26662662,68.0388981 7.31746739,68.3173646 7.46738496,68.5445369 C7.77158385,69.0054941 8.39186536,69.1325717 8.8528225,68.8283728 Z M28.069988,60.9389161 L11.0560257,72.1669198 C8.75124007,73.6879142 5.6498325,73.0525259 4.12883805,70.7477402 C3.37925019,69.6118785 3.12504635,68.219546 3.42489514,66.8920843 L7.14297956,50.4317393 C2.68824733,45.196875 9.07754056e-16,38.4123744 0,31 C-2.02906125e-15,14.4314575 13.4314575,1 30,1 L54,1 C70.5685425,1 84,14.4314575 84,31 C84,47.5685425 70.5685425,61 54,61 L30,61 C29.3516534,61 28.7081104,60.9794331 28.069988,60.9389161 Z" fill="#333333" fill-rule="nonzero"></path><path d="M24,21 C22.8954305,21 22,20.1045695 22,19 C22,17.8954305 22.8954305,17 24,17 L61,17 C62.1045695,17 63,17.8954305 63,19 C63,20.1045695 62.1045695,21 61,21 L24,21 Z" fill="#333333" fill-rule="nonzero"></path><path d="M24,33 C22.8954305,33 22,32.1045695 22,31 C22,29.8954305 22.8954305,29 24,29 L61,29 C62.1045695,29 63,29.8954305 63,31 C63,32.1045695 62.1045695,33 61,33 L24,33 Z" fill="#333333" fill-rule="nonzero"></path><path d="M24,45 C22.8954305,45 22,44.1045695 22,43 C22,41.8954305 22.8954305,41 24,41 L51,41 C52.1045695,41 53,41.8954305 53,43 C53,44.1045695 52.1045695,45 51,45 L24,45 Z" fill="#333333" fill-rule="nonzero"></path></g></svg>