<svg width="33" height="24" viewBox="0 0 33 24" fill="none" xmlns="http://www.w3.org/2000/svg">
<rect width="33" height="24" fill="#D5E5FE"/>
<path fill-rule="evenodd" clip-rule="evenodd" d="M19.3333 21H13.6667L14.2333 17.6H18.7667L19.3333 21Z" stroke="#1B7DF9" stroke-linecap="round" stroke-linejoin="round"/>
<path d="M11.9667 21.0001H21.0333" stroke="#1B7DF9" stroke-linecap="round" stroke-linejoin="round"/>
<path d="M8 15.3333H25" stroke="#1B7DF9" stroke-linecap="round" stroke-linejoin="round"/>
<path d="M24.15 4H8.85C8.38056 4 8 4.39641 8 4.88542V16.7146C8 17.2036 8.38056 17.6 8.85 17.6H24.15C24.6194 17.6 25 17.2036 25 16.7146V4.88542C25 4.39641 24.6194 4 24.15 4Z" stroke="#1B7DF9" stroke-linecap="round" stroke-linejoin="round"/>
<path d="M13.5745 11.3667C15.2321 12.878 17.7679 12.878 19.4255 11.3667" stroke="#1B7DF9" stroke-linecap="round" stroke-linejoin="round"/>
<path d="M14.2333 7.39996V8.5333" stroke="#1B7DF9" stroke-linecap="round" stroke-linejoin="round"/>
<path d="M18.7666 7.39996V8.5333" stroke="#1B7DF9" stroke-linecap="round" stroke-linejoin="round"/>
</svg>
