<svg width="20" height="20" viewBox="0 0 20 20" fill="none" xmlns="http://www.w3.org/2000/svg">
<path d="M4.12186 7.25039C2.05608 9.19655 1.57001 12.173 2.9067 14.6153C3.75731 16.1035 5.1345 17.2101 6.83573 17.6681C8.61797 18.1641 10.6027 17.9352 12.2635 17.0575C12.6685 16.8285 13.2356 16.9049 13.6001 17.2483C13.8432 17.4773 13.9647 17.8207 13.9242 18.1641C13.8837 18.5076 13.6811 18.7747 13.3571 18.9273C9.67111 20.8735 5.01298 20.1103 2.2181 17.1338C-0.698291 14.0047 -0.738797 9.27287 2.09659 6.06743C3.83832 4.12128 6.30915 3.0528 8.94201 3.0528C9.18504 3.0528 9.42808 3.0528 9.67111 3.09096V5.45687C7.68634 5.18976 5.62056 5.83847 4.12186 7.25039ZM19.5949 4.50288L12.7495 7.82279C12.4255 7.97543 12.1824 7.86095 12.0609 7.78463C11.9799 7.70831 11.7369 7.55567 11.7369 7.21223V6.67799C11.7369 6.67799 11.7369 6.67799 11.7369 6.63983V2.2896V2.25144V0.686879C11.7369 0.343439 11.9799 0.1908 12.0609 0.11448C12.1419 0.0763196 12.2635 0 12.4255 0C12.5065 0 12.628 -4.37843e-07 12.7495 0.0763195L19.5949 3.31992C19.9595 3.47256 20 3.77784 20 3.89232C20 4.0068 19.9595 4.35024 19.5949 4.50288Z" fill="#7E8C9F"/>
<path d="M9.4043 12.6123H10.3906V13.3496H9.4043V15H8.49609V13.3496H5.25879V12.8174L8.44238 7.89062H9.4043V12.6123ZM6.28418 12.6123H8.49609V9.12598L8.38867 9.32129L6.28418 12.6123Z" fill="#7E8C9F"/>
</svg>
