<svg height='100px' width='100px'  fill="#333333" xmlns="http://www.w3.org/2000/svg" xmlns:xlink="http://www.w3.org/1999/xlink" xmlns:serif="http://www.serif.com/" viewBox="0 0 64 64" version="1.1" xml:space="preserve" style="" x="0px" y="0px" fill-rule="evenodd" clip-rule="evenodd" stroke-linejoin="round" stroke-miterlimit="1.41421"><rect x="0" y="0" width="64" height="64" style="" fill="none"></rect><path d="M30,29.991c-0.001,-4.667 -0.004,-9.334 0,-14c0.003,-1.243 0.404,-2.493 1.139,-3.509c0.728,-1.005 1.778,-1.778 2.959,-2.173c0.61,-0.203 1.256,-0.307 1.893,-0.309c4.006,-0.003 8.012,0.016 12.018,0c0.62,-0.003 1.229,-0.304 1.606,-0.82c0.247,-0.338 0.383,-0.755 0.385,-1.174c0,-0.002 0,-0.004 0,-0.007l0,-3.999l0.005,-0.14c0.005,-0.046 0.008,-0.092 0.014,-0.138c0.065,-0.461 0.295,-0.895 0.643,-1.208c0.311,-0.28 0.712,-0.459 1.129,-0.503c0.123,-0.013 0.155,-0.01 0.279,-0.01c0.046,0.003 0.093,0.007 0.139,0.01c0.123,0.017 0.154,0.018 0.275,0.048c0.542,0.135 1.02,0.509 1.282,1.002c0.131,0.247 0.21,0.521 0.229,0.799c0.003,0.047 0.003,0.093 0.005,0.14c0,1.336 0.001,2.673 0,4.009c-0.003,1.303 -0.445,2.61 -1.244,3.649c-0.754,0.98 -1.819,1.718 -3.002,2.08c-0.564,0.172 -1.154,0.261 -1.745,0.262c-4.006,0.003 -8.012,-0.016 -12.018,0c-0.392,0.002 -0.783,0.122 -1.108,0.341c-0.54,0.364 -0.881,0.995 -0.883,1.656l0,0.004l0,13.99c7.336,0 14.673,0.003 22.009,0.009c0.945,0.002 1.902,0.233 2.751,0.673c1.104,0.572 2.023,1.496 2.588,2.607c0.425,0.836 0.65,1.773 0.652,2.711c0.005,6.673 0.005,13.345 0,20.018c-0.003,1.259 -0.413,2.515 -1.156,3.531c-0.899,1.231 -2.279,2.096 -3.785,2.366c-0.347,0.062 -0.699,0.093 -1.05,0.094c-16.006,0.013 -32.012,0.013 -48.018,0c-0.95,-0.002 -1.905,-0.234 -2.751,-0.673c-1.122,-0.581 -2.051,-1.525 -2.613,-2.656c-0.409,-0.824 -0.625,-1.74 -0.627,-2.662c-0.005,-6.673 -0.005,-13.345 0,-20.018c0.003,-1.288 0.434,-2.579 1.216,-3.612c0.757,-1 1.833,-1.751 3.03,-2.117c0.565,-0.172 1.158,-0.261 1.745,-0.262c7.336,-0.006 14.672,-0.009 22.009,-0.009Zm24,22.009l-4,0l0,4l4,0l0,-4Zm-40,0l-4,0l0,4l4,0l0,-4Zm32,0l-28,0l0,4l28,0l0,-4Zm8,-8l-4,0l0,4l4,0l0,-4Zm-8,0l-4,0l0,4l4,0l0,-4Zm-8,0l-4,0l0,4l4,0l0,-4Zm-8,0l-4,0l0,4l4,0l0,-4Zm-8,0l-4,0l0,4l4,0l0,-4Zm-8,0l-4,0l0,4l4,0l0,-4Zm0,-8l-4,0l0,4l4,0l0,-4Zm8,0l-4,0l0,4l4,0l0,-4Zm8,0l-4,0l0,4l4,0l0,-4Zm8,0l-4,0l0,4l4,0l0,-4Zm8,0l-4,0l0,4l4,0l0,-4Zm8,0l-4,0l0,4l4,0l0,-4Z"></path></svg>