<svg height='24px' width='24px' id="nr-icon" fill="#7E8C9F" xmlns="http://www.w3.org/2000/svg" data-name="Layer 1" viewBox="0 0 100 100" x="0px" y="0px"><path d="M15.23486,78.45209c0,9.43359,14.94532,16.54785,34.76465,16.54785s34.76563-7.11426,34.76563-16.54785c0-5.80957-5.67383-10.73627-14.658-13.66669-.9458,1.59137-1.8418,3.05237-2.7002,4.41748,7.69385,2.2688,12.35816,5.877,12.35816,9.24921,0,5.46191-12.22461,11.54785-29.76563,11.54785S20.23486,83.914,20.23486,78.45209c0-3.37219,4.66382-6.98035,12.3573-9.24915-.85852-1.36511-1.75427-2.82611-2.70019-4.41748C20.9082,67.71588,15.23486,72.64258,15.23486,78.45209Z"></path><path d="M25.23206,29.76764c0,17.64978,22.46905,48.5741,24.76763,48.5741s24.76764-30.92432,24.76764-48.5741a24.76764,24.76764,0,0,0-49.53527,0Zm36.39025,0A11.62262,11.62262,0,1,1,49.99969,18.145,11.6226,11.6226,0,0,1,61.62231,29.76764Z"></path>
<script> <![CDATA[ var nrcolor = location.hash.substring(1).replace("*", "#");
   if (nrcolor.length > 0){document.getElementById("nr-icon").setAttribute('fill', nrcolor);}
    ]]> </script>
</svg>