<svg height='100px' width='100px'  id="nr-icon"  fill="#6c6c6c" xmlns="http://www.w3.org/2000/svg" xmlns:xlink="http://www.w3.org/1999/xlink" version="1.1" x="0px" y="0px" viewBox="0 0 90 90" enable-background="new 0 0 90 90" xml:space="preserve"><path d="M63.181,55H24.396l11.227-33h0.062l1.626,5h16.18c-3.419-9.866-5.906-17.032-5.906-17.032  c-0.244-0.776-0.541-1.39-0.889-1.841c-0.348-0.449-0.92-0.787-1.719-1.012c-0.797-0.225-16.398-0.225-17.113,0  c-0.717,0.225-1.238,0.553-1.564,0.981c-0.328,0.43-0.613,0.992-0.859,1.687c0,0-25.273,73-25.396,73.86  c-0.123,0.858,0.02,1.523,0.43,1.993c0.408,0.471,12.811,0.715,13.403,0.49c0.593-0.224,1.022-0.654,1.288-1.043  S20.838,68,20.838,68h29.814c0,0,5.705,17.033,5.949,17.361c0.246,0.326,0.676,0.643,1.289,0.827s14.211-0.03,14.662-0.46  c0.449-0.429,0.613-1.059,0.49-1.917C72.992,83.448,68.429,70.193,63.181,55z"></path><rect x="40" y="34" width="49" height="13"></rect>
<script> <![CDATA[ var nrcolor = location.hash.substring(1).replace("*", "#");
   if (nrcolor.length > 0){document.getElementById("nr-icon").setAttribute('fill', nrcolor);}
    ]]> </script>
</svg>