<svg width="24" height="24" viewBox="0 0 24 24" fill="none" xmlns="http://www.w3.org/2000/svg">
<path d="M3.8399 3.59998C3.04461 3.59998 2.3999 4.24466 2.3999 5.03998C2.3999 5.83524 3.04461 6.47998 3.8399 6.47998H20.1599C20.9552 6.47998 21.5999 5.83524 21.5999 5.03998C21.5999 4.24466 20.9552 3.59998 20.1599 3.59998H3.8399ZM3.8399 10.56C3.04461 10.56 2.3999 11.2047 2.3999 12C2.3999 12.7952 3.04461 13.44 3.8399 13.44H20.1599C20.9552 13.44 21.5999 12.7952 21.5999 12C21.5999 11.2047 20.9552 10.56 20.1599 10.56H3.8399ZM3.8399 17.52C3.04461 17.52 2.3999 18.1647 2.3999 18.96C2.3999 19.7552 3.04461 20.4 3.8399 20.4H20.1599C20.9552 20.4 21.5999 19.7552 21.5999 18.96C21.5999 18.1647 20.9552 17.52 20.1599 17.52H3.8399Z" fill="#7E8C9F"/>
</svg>
