<svg width="24" height="24" viewBox="0 0 24 24" fill="none" xmlns="http://www.w3.org/2000/svg">
<g clip-path="url(#clip0)">
<path d="M12 -0.000205994C7.04129 -0.000206372 3 4.04108 3 8.99979C3 12.0331 5.14089 15.5143 7.17969 18.4451C9.21849 21.3759 11.252 23.6639 11.252 23.6639C11.3458 23.7696 11.461 23.8542 11.5899 23.9122C11.7189 23.9702 11.8586 24.0002 12 24.0002C12.1414 24.0002 12.2811 23.9702 12.4101 23.9122C12.539 23.8542 12.6542 23.7696 12.7481 23.6639C12.7481 23.6639 14.7815 21.3759 16.8203 18.4451C18.8591 15.5143 21 12.0331 21 8.99979C21 4.04108 16.9587 -0.000206372 12 -0.000205994ZM12 1.99979C15.8778 1.99979 19 5.12196 19 8.99979C19 10.9665 17.1409 14.4853 15.1797 17.3045C13.5922 19.5865 12.5484 20.7414 12 21.3767C11.4516 20.7414 10.4078 19.5865 8.82032 17.3045C6.85912 14.4853 5 10.9665 5 8.99979C5 5.12196 8.12217 1.99979 12 1.99979ZM12 3.99979C9.25042 3.99979 7 6.25021 7 8.99979C7 11.7494 9.25042 13.9998 12 13.9998C14.7496 13.9998 17 11.7494 17 8.99979C17 6.25021 14.7496 3.99979 12 3.99979ZM12 5.99979C13.6687 5.99979 15 7.3311 15 8.99979C15 10.6685 13.6687 11.9998 12 11.9998C10.3313 11.9998 9 10.6685 9 8.99979C9 7.3311 10.3313 5.99979 12 5.99979Z" fill="#1B7DF9"/>
</g>
<defs>
<clipPath id="clip0">
<rect width="24" height="24" fill="white"/>
</clipPath>
</defs>
</svg>
