<svg width="100" height="100" viewBox="0 0 100 100" fill="none" xmlns="http://www.w3.org/2000/svg">
<path d="M50.0013 92.9695C73.695 92.9695 92.9697 73.6926 92.9697 50C92.9697 26.3074 73.695 7.03053 50.0013 7.03053C26.3066 7.03053 7.03076 26.3074 7.03076 50C7.03076 73.6926 26.3066 92.9695 50.0013 92.9695ZM50.0013 87.9895C39.3939 87.9895 29.7929 83.6147 22.8939 76.58C25.1223 73.36 29.7318 70.6684 35.7129 68.9947C39.7497 71.8705 44.6802 73.5695 50.0002 73.5695C55.3234 73.5695 60.2529 71.8716 64.2876 68.9947C70.2697 70.6674 74.8781 73.36 77.1087 76.5779C70.2097 83.6137 60.6087 87.9895 50.0013 87.9895ZM70.5308 48.8863C70.5308 60.2253 61.3413 69.4189 50.0002 69.4189C38.6623 69.4189 29.4697 60.2263 29.4697 48.8863C29.4697 37.5463 38.6623 28.3558 50.0002 28.3558C61.3402 28.3558 70.5308 37.5474 70.5308 48.8863Z" fill="#7E8C9F"/>
</svg>
