<svg width="27" height="27" viewBox="0 0 27 27" fill="none" xmlns="http://www.w3.org/2000/svg">
<g id="headphone">
<path id="Shape" d="M13.5 26C6.59644 26 1 20.4036 1 13.5C1 6.59644 6.59644 1 13.5 1C20.4036 1 26 6.59644 26 13.5C26 16.8152 24.683 19.9946 22.3388 22.3388C19.9946 24.683 16.8152 26 13.5 26Z" fill="white" stroke="#1A7DF9"/>
<path id="Path" d="M13.5 2.78571C7.58266 2.78571 2.78571 7.58266 2.78571 13.5C2.78571 19.4173 7.58266 24.2143 13.5 24.2143C19.4173 24.2143 24.2143 19.4173 24.2143 13.5C24.2143 7.58266 19.4173 2.78571 13.5 2.78571Z" fill="white"/>
<g id="nrwidget">
<path id="Path_2" d="M11.5162 17.546C11.4015 17.546 11.3086 17.4591 11.3086 17.3519V16.5755C11.3086 16.4683 11.4015 16.3814 11.5162 16.3814C11.6309 16.3814 11.7239 16.4683 11.7239 16.5755V17.3519C11.7239 17.4591 11.6309 17.546 11.5162 17.546Z" fill="#1A7DF9"/>
<path id="Path_3" d="M12.4797 18.3224C12.365 18.3224 12.272 18.2355 12.272 18.1283V15.7991C12.272 15.6919 12.365 15.605 12.4797 15.605C12.5943 15.605 12.6873 15.6919 12.6873 15.7991V18.1283C12.6873 18.2355 12.5943 18.3224 12.4797 18.3224Z" fill="#1A7DF9"/>
<path id="Path_4" d="M15.37 17.546C15.2554 17.546 15.1624 17.4591 15.1624 17.3519V16.5755C15.1624 16.4683 15.2554 16.3814 15.37 16.3814C15.4847 16.3814 15.5777 16.4683 15.5777 16.5755V17.3519C15.5777 17.4591 15.4847 17.546 15.37 17.546Z" fill="#1A7DF9"/>
<path id="Path_5" d="M14.4066 18.3224C14.2919 18.3224 14.1989 18.2355 14.1989 18.1283V15.7991C14.1989 15.6919 14.2919 15.605 14.4066 15.605C14.5213 15.605 14.6142 15.6919 14.6142 15.7991V18.1283C14.6142 18.2355 14.5213 18.3224 14.4066 18.3224Z" fill="#1A7DF9"/>
<path id="Path_6" d="M13.4431 19.0988C13.3284 19.0988 13.2355 19.0119 13.2355 18.9047V15.0227C13.2355 14.9155 13.3284 14.8286 13.4431 14.8286C13.5578 14.8286 13.6508 14.9155 13.6508 15.0227V18.9047C13.6508 19.0119 13.5578 19.0988 13.4431 19.0988Z" fill="#1A7DF9"/>
<g id="headphone_2">
<path id="Path_7" d="M18.51 14.11V12.8243C18.51 10.0431 16.2554 7.78857 13.4743 7.78857C10.6931 7.78857 8.43857 10.0431 8.43857 12.8243V14.11C7.73114 14.4785 7.28695 15.2095 7.28571 16.0071V17.0371C7.28571 18.2206 8.2451 19.18 9.42857 19.18H9.49571C9.87459 19.18 10.238 19.0295 10.5059 18.7616C10.7738 18.4937 10.9243 18.1303 10.9243 17.7514V15.2929C10.9256 14.5357 10.3359 13.909 9.58 13.8643V12.8229C9.58 10.6729 11.3229 8.93 13.4729 8.93C15.6228 8.93 17.3657 10.6729 17.3657 12.8229V13.8686C16.6098 13.9132 16.0201 14.5399 16.0214 15.2971V17.7514C16.0214 18.5404 16.661 19.18 17.45 19.18H17.5171C18.7006 19.18 19.66 18.2206 19.66 17.0371V16.0071C19.6593 15.2101 19.2163 14.4793 18.51 14.11Z" fill="#1A7DF9"/>
</g>
</g>
<path id="Path_8" d="M18.52 17.0371C18.52 17.5894 18.0723 18.0371 17.52 18.0371H17.4529C17.2951 18.0371 17.1671 17.9092 17.1671 17.7514V15.2929C17.1671 15.1351 17.2951 15.0071 17.4529 15.0071H17.52C18.0723 15.0071 18.52 15.4549 18.52 16.0071V17.0371Z" fill="white"/>
<path id="Path_9" d="M9.78286 15.2929V17.7514C9.78286 17.9092 9.65494 18.0371 9.49714 18.0371H9.43C8.87772 18.0371 8.43 17.5894 8.43 17.0371V16.0071C8.43 15.4549 8.87772 15.0071 9.43 15.0071H9.49714C9.65494 15.0071 9.78286 15.1351 9.78286 15.2929Z" fill="white"/>
</g>
</svg>
