<svg width="20" height="20" viewBox="0 0 20 20" fill="none" xmlns="http://www.w3.org/2000/svg">
<path d="M15.8781 7.25039C17.9439 9.19655 18.43 12.173 17.0933 14.6153C16.2427 16.1035 14.8655 17.2101 13.1643 17.6681C11.382 18.1641 9.39727 17.9352 7.73654 17.0575C7.33149 16.8285 6.76441 16.9049 6.39986 17.2483C6.15683 17.4773 6.03531 17.8207 6.07582 18.1641C6.11632 18.5076 6.31885 18.7747 6.6429 18.9273C10.3289 20.8735 14.987 20.1103 17.7819 17.1338C20.6983 14.0047 20.7388 9.27287 17.9034 6.06743C16.1617 4.12128 13.6908 3.0528 11.058 3.0528C10.815 3.0528 10.5719 3.0528 10.3289 3.09096L10.3289 5.45687C12.3137 5.18976 14.3794 5.83847 15.8781 7.25039ZM0.405054 4.50288L7.25048 7.82279C7.57452 7.97543 7.81755 7.86095 7.93907 7.78463C8.02008 7.70831 8.26311 7.55567 8.26311 7.21223V6.67799C8.26311 6.67799 8.26311 6.67799 8.26311 6.63983L8.26311 2.2896V2.25144V0.686879C8.26311 0.343439 8.02008 0.1908 7.93907 0.11448C7.85806 0.0763196 7.73654 0 7.57452 0C7.49351 0 7.37199 -4.37843e-07 7.25048 0.0763195L0.405054 3.31992C0.0405052 3.47256 -2.35319e-07 3.77784 -2.35319e-07 3.89232C-2.35319e-07 4.0068 0.0405052 4.35024 0.405054 4.50288Z" fill="#7E8C9F"/>
</svg>
