<svg height='100px' width='100px'  fill="#333333" xmlns="http://www.w3.org/2000/svg" xmlns:xlink="http://www.w3.org/1999/xlink" version="1.1" x="0px" y="0px" viewBox="0 0 50 50" enable-background="new 0 0 50 50" xml:space="preserve"><path d="M21.8,36.132h-5.229V4.253h13.657v2.772c0,0.276,0.225,0.5,0.5,0.5c0.276,0,0.5-0.224,0.5-0.5V3.753  c0-0.276-0.224-0.5-0.5-0.5H1.417c-0.276,0-0.5,0.224-0.5,0.5v3.272c0,0.276,0.224,0.5,0.5,0.5s0.5-0.224,0.5-0.5V4.253h13.654  v31.879h-5.227c-0.276,0-0.5,0.224-0.5,0.5s0.224,0.5,0.5,0.5h11.457c0.276,0,0.5-0.224,0.5-0.5S22.077,36.132,21.8,36.132z"></path><path d="M49.062,30.955c-0.006-0.021-0.004-0.043-0.013-0.064c-0.001-0.002-0.003-0.002-0.003-0.004  c-0.016-0.037-0.042-0.068-0.066-0.102c-0.015-0.021-0.024-0.045-0.043-0.063c-0.008-0.01-0.021-0.014-0.029-0.021  c-0.04-0.034-0.084-0.064-0.133-0.086c-0.002,0-0.002-0.002-0.004-0.004L23.597,20.607c-0.025-0.01-0.053-0.008-0.08-0.014  c-0.035-0.008-0.068-0.019-0.104-0.019c-0.037,0-0.071,0.011-0.106,0.021c-0.025,0.004-0.053,0.004-0.078,0.014  c-0.002,0-0.004,0.002-0.006,0.004c-0.039,0.016-0.07,0.041-0.104,0.066c-0.02,0.014-0.042,0.023-0.059,0.041  c-0.018,0.016-0.026,0.039-0.041,0.059c-0.024,0.033-0.052,0.064-0.066,0.104c-0.001,0.002-0.004,0.004-0.004,0.006  c-0.01,0.024-0.008,0.049-0.014,0.073c-0.009,0.037-0.02,0.073-0.02,0.11c0,0.039,0.011,0.074,0.02,0.111  c0.006,0.024,0.004,0.049,0.014,0.073l1.251,3.149c-0.001,0.011-0.012,0.018-0.012,0.029c0,0.082,0.042,0.146,0.101,0.193  l8.663,21.803c0.001,0.002,0.003,0.004,0.004,0.006c0.032,0.08,0.092,0.146,0.162,0.199c0.019,0.016,0.036,0.025,0.056,0.037  c0.021,0.012,0.035,0.028,0.059,0.037c0.061,0.023,0.123,0.036,0.186,0.036s0.124-0.013,0.186-0.035  c0.021-0.009,0.037-0.026,0.059-0.038c0.02-0.012,0.035-0.021,0.055-0.035c0.071-0.055,0.131-0.121,0.163-0.201  c0.001-0.002,0.002-0.004,0.003-0.004l4.059-10.127l9.113,9.113c0.098,0.098,0.227,0.146,0.354,0.146s0.256-0.049,0.354-0.146  c0.194-0.195,0.194-0.512,0-0.707l-9.113-9.111l10.125-4.061c0.022-0.01,0.037-0.025,0.059-0.038  c0.02-0.011,0.036-0.021,0.055-0.035c0.07-0.055,0.129-0.12,0.162-0.2c0.001-0.002,0.003-0.004,0.004-0.006  c0.01-0.025,0.01-0.052,0.014-0.078c0.004-0.035,0.016-0.07,0.016-0.106C49.083,31.035,49.071,30.995,49.062,30.955z M24.315,21.971  c-0.002,0.001-0.005,0.001-0.007,0.003l-0.002-0.007L24.315,21.971z M38.115,34.735c0.023-0.039,0.052-0.076,0.052-0.125  c0-0.143-0.113-0.258-0.258-0.258c-0.143,0-0.256,0.115-0.256,0.258c0,0.118,0.087,0.202,0.195,0.231l-0.279,0.112  c-0.002,0.001-0.004,0.002-0.004,0.003c-0.051,0.021-0.096,0.055-0.137,0.09c-0.008,0.008-0.019,0.01-0.025,0.018  c-0.016,0.016-0.023,0.037-0.037,0.056c-0.025,0.034-0.055,0.067-0.07,0.106c0,0.002-0.002,0.004-0.003,0.006l-0.181,0.45  c-0.028-0.111-0.112-0.201-0.232-0.201c-0.143,0-0.256,0.116-0.256,0.259c0,0.142,0.113,0.258,0.256,0.258  c0.05,0,0.088-0.028,0.128-0.054l-0.296,0.738c-0.053,0.048-0.088,0.112-0.088,0.188c0,0.006,0.006,0.009,0.006,0.015l-0.8,1.996  c-0.13,0.012-0.237,0.114-0.237,0.248c0,0.065,0.029,0.123,0.07,0.169l-0.751,1.871c-0.03-0.013-0.054-0.037-0.089-0.037  c-0.143,0-0.26,0.116-0.26,0.259c0,0.107,0.077,0.183,0.172,0.222l-0.753,1.877c-0.047-0.057-0.111-0.096-0.19-0.096  c-0.143,0-0.256,0.115-0.256,0.258c0,0.142,0.113,0.257,0.256,0.257c0.011,0,0.017-0.01,0.027-0.011l-0.401,1l-0.447-1.126  c0.021-0.038,0.05-0.073,0.05-0.12c0-0.116-0.085-0.197-0.189-0.229l-1.165-2.933c0.024,0.008,0.041,0.028,0.067,0.028  c0.143,0,0.256-0.115,0.256-0.258c0-0.142-0.113-0.257-0.256-0.257c-0.095,0-0.162,0.06-0.206,0.136l-0.759-1.908  c0.105-0.031,0.191-0.113,0.191-0.23c0-0.142-0.115-0.257-0.256-0.257c-0.043,0-0.075,0.027-0.11,0.046l-0.742-1.866  c0.05-0.047,0.081-0.111,0.081-0.184c0-0.141-0.113-0.255-0.256-0.257l-1.165-2.932c0.041,0.026,0.082,0.056,0.134,0.056  c0.141,0,0.258-0.116,0.258-0.259c0-0.142-0.117-0.258-0.258-0.258c-0.122,0-0.208,0.092-0.235,0.204l-0.778-1.957  c0.134-0.009,0.242-0.114,0.242-0.25c0-0.143-0.115-0.258-0.258-0.258c-0.063,0-0.115,0.029-0.159,0.066l-0.742-1.866  c0.072-0.046,0.128-0.113,0.128-0.205c0-0.142-0.113-0.257-0.256-0.257c-0.019,0-0.03,0.016-0.048,0.02l-0.764-1.924  c0.015-0.032,0.04-0.06,0.04-0.098c0-0.106-0.074-0.181-0.167-0.22l-1.165-2.931c0.121-0.022,0.217-0.114,0.217-0.241  c0-0.024-0.02-0.04-0.025-0.062l2.728,1.084c-0.019,0.035-0.045,0.066-0.045,0.108c0,0.142,0.115,0.257,0.258,0.257  c0.116,0,0.197-0.084,0.229-0.188l2.61,1.037c-0.001,0.009-0.01,0.015-0.01,0.024c0,0.143,0.115,0.258,0.258,0.258  c0.082,0,0.146-0.045,0.193-0.106l1.842,0.732c-0.13,0.014-0.234,0.116-0.234,0.248c0,0.143,0.115,0.258,0.26,0.258  c0.141,0,0.256-0.115,0.256-0.258c0-0.063-0.029-0.118-0.067-0.163l0.616,0.245c0.037,0.098,0.112,0.176,0.223,0.176  c0.042,0,0.072-0.026,0.107-0.045l1.809,0.72c-0.065,0.046-0.115,0.111-0.115,0.197c0,0.143,0.117,0.258,0.258,0.258  s0.258-0.115,0.258-0.258c0-0.019-0.016-0.029-0.02-0.046l2.646,1.051c-0.023,0.039-0.052,0.076-0.052,0.124  c0,0.143,0.115,0.259,0.258,0.259c0.121,0,0.208-0.093,0.234-0.207l2.613,1.038c-0.003,0.016-0.018,0.026-0.018,0.043  c0,0.142,0.115,0.258,0.256,0.258c0.091,0,0.157-0.055,0.204-0.125l2.651,1.054c0.028,0.11,0.112,0.2,0.232,0.2  c0.053,0,0.093-0.028,0.134-0.055l1.808,0.719c-0.074,0.042-0.13,0.106-0.134,0.197l-2.618,1.049  c-0.039-0.091-0.113-0.164-0.219-0.164c-0.143,0-0.256,0.116-0.256,0.258c0,0.032,0.023,0.055,0.034,0.083l-2.609,1.046  c-0.001-0.141-0.117-0.256-0.255-0.256c-0.143,0-0.26,0.116-0.26,0.258c0,0.068,0.029,0.129,0.073,0.175l-1.809,0.725  c-0.022-0.007-0.039-0.026-0.063-0.026c-0.095,0-0.162,0.06-0.207,0.135L38.115,34.735z"></path><circle cx="25.558" cy="23.305" r="0.257"></circle><circle cx="26.587" cy="23.305" r="0.257"></circle><circle cx="25.558" cy="24.435" r="0.258"></circle><circle cx="26.587" cy="24.435" r="0.258"></circle><path d="M29.673,24.177c-0.139,0-0.256,0.116-0.256,0.258c0,0.143,0.117,0.258,0.256,0.258c0.145,0,0.26-0.115,0.26-0.258  C29.933,24.293,29.817,24.177,29.673,24.177z"></path><circle cx="28.646" cy="24.435" r="0.258"></circle><circle cx="27.616" cy="24.435" r="0.258"></circle><circle cx="26.587" cy="25.566" r="0.258"></circle><circle cx="31.733" cy="25.566" r="0.258"></circle><circle cx="30.704" cy="25.566" r="0.258"></circle><path d="M29.673,25.309c-0.139,0-0.256,0.116-0.256,0.258c0,0.143,0.117,0.258,0.256,0.258c0.145,0,0.26-0.115,0.26-0.258  C29.933,25.425,29.817,25.309,29.673,25.309z"></path><circle cx="28.646" cy="25.566" r="0.258"></circle><circle cx="27.616" cy="25.566" r="0.258"></circle><circle cx="26.587" cy="26.697" r="0.257"></circle><path d="M34.823,26.439c-0.143,0-0.26,0.115-0.26,0.257c0,0.143,0.117,0.258,0.26,0.258c0.141,0,0.256-0.115,0.256-0.258  C35.079,26.555,34.964,26.439,34.823,26.439z"></path><circle cx="33.792" cy="26.697" r="0.257"></circle><path d="M32.765,26.439c-0.145,0-0.26,0.115-0.26,0.257c0,0.143,0.115,0.258,0.26,0.258c0.141,0,0.256-0.115,0.256-0.258  C33.021,26.555,32.905,26.439,32.765,26.439z"></path><circle cx="31.733" cy="26.697" r="0.257"></circle><circle cx="30.704" cy="26.697" r="0.257"></circle><path d="M29.673,26.439c-0.139,0-0.256,0.115-0.256,0.257c0,0.143,0.117,0.258,0.256,0.258c0.145,0,0.26-0.115,0.26-0.258  C29.933,26.555,29.817,26.439,29.673,26.439z"></path><circle cx="28.646" cy="26.697" r="0.257"></circle><circle cx="27.616" cy="26.697" r="0.257"></circle><path d="M37.909,27.568c-0.143,0-0.256,0.115-0.256,0.257c0,0.143,0.113,0.259,0.256,0.259c0.145,0,0.258-0.116,0.258-0.259  C38.167,27.684,38.054,27.568,37.909,27.568z"></path><circle cx="36.88" cy="27.826" r="0.258"></circle><circle cx="35.851" cy="27.826" r="0.258"></circle><path d="M34.823,27.568c-0.143,0-0.26,0.115-0.26,0.257c0,0.143,0.117,0.259,0.26,0.259c0.141,0,0.256-0.116,0.256-0.259  C35.079,27.684,34.964,27.568,34.823,27.568z"></path><circle cx="33.792" cy="27.826" r="0.258"></circle><path d="M32.765,27.568c-0.145,0-0.26,0.115-0.26,0.257c0,0.143,0.115,0.259,0.26,0.259c0.141,0,0.256-0.116,0.256-0.259  C33.021,27.684,32.905,27.568,32.765,27.568z"></path><circle cx="31.733" cy="27.826" r="0.258"></circle><circle cx="30.704" cy="27.826" r="0.258"></circle><path d="M29.673,27.568c-0.139,0-0.256,0.115-0.256,0.257c0,0.143,0.117,0.259,0.256,0.259c0.145,0,0.26-0.116,0.26-0.259  C29.933,27.684,29.817,27.568,29.673,27.568z"></path><circle cx="28.646" cy="27.826" r="0.258"></circle><circle cx="27.616" cy="27.826" r="0.258"></circle><circle cx="40.999" cy="28.958" r="0.258"></circle><circle cx="39.97" cy="28.958" r="0.258"></circle><circle cx="38.94" cy="28.958" r="0.258"></circle><path d="M37.909,28.699c-0.143,0-0.256,0.116-0.256,0.259c0,0.142,0.113,0.258,0.256,0.258c0.145,0,0.258-0.116,0.258-0.258  C38.167,28.815,38.054,28.699,37.909,28.699z"></path><circle cx="36.88" cy="28.958" r="0.258"></circle><circle cx="35.851" cy="28.958" r="0.258"></circle><path d="M34.823,28.699c-0.143,0-0.26,0.116-0.26,0.259c0,0.142,0.117,0.258,0.26,0.258c0.141,0,0.256-0.116,0.256-0.258  C35.079,28.815,34.964,28.699,34.823,28.699z"></path><circle cx="33.792" cy="28.958" r="0.258"></circle><path d="M32.765,28.699c-0.145,0-0.26,0.116-0.26,0.259c0,0.142,0.115,0.258,0.26,0.258c0.141,0,0.256-0.116,0.256-0.258  C33.021,28.815,32.905,28.699,32.765,28.699z"></path><circle cx="31.733" cy="28.958" r="0.258"></circle><circle cx="30.704" cy="28.958" r="0.258"></circle><path d="M29.673,28.699c-0.139,0-0.256,0.116-0.256,0.259c0,0.142,0.117,0.258,0.256,0.258c0.145,0,0.26-0.116,0.26-0.258  C29.933,28.815,29.817,28.699,29.673,28.699z"></path><circle cx="28.646" cy="28.958" r="0.258"></circle><circle cx="27.616" cy="28.958" r="0.258"></circle><circle cx="44.085" cy="30.087" r="0.257"></circle><circle cx="43.056" cy="30.087" r="0.257"></circle><path d="M42.026,30.345c0.143,0,0.26-0.115,0.26-0.257c0-0.143-0.117-0.258-0.26-0.258c-0.141,0-0.256,0.115-0.256,0.258  C41.771,30.229,41.886,30.345,42.026,30.345z"></path><circle cx="40.999" cy="30.087" r="0.257"></circle><circle cx="39.97" cy="30.087" r="0.257"></circle><circle cx="38.94" cy="30.087" r="0.257"></circle><path d="M37.909,29.83c-0.143,0-0.256,0.115-0.256,0.258c0,0.142,0.113,0.257,0.256,0.257c0.145,0,0.258-0.115,0.258-0.257  C38.167,29.945,38.054,29.83,37.909,29.83z"></path><circle cx="36.88" cy="30.087" r="0.257"></circle><circle cx="35.851" cy="30.087" r="0.257"></circle><path d="M34.823,29.83c-0.143,0-0.26,0.115-0.26,0.258c0,0.142,0.117,0.257,0.26,0.257c0.141,0,0.256-0.115,0.256-0.257  C35.079,29.945,34.964,29.83,34.823,29.83z"></path><circle cx="33.792" cy="30.087" r="0.257"></circle><path d="M32.765,29.83c-0.145,0-0.26,0.115-0.26,0.258c0,0.142,0.115,0.257,0.26,0.257c0.141,0,0.256-0.115,0.256-0.257  C33.021,29.945,32.905,29.83,32.765,29.83z"></path><circle cx="31.733" cy="30.087" r="0.257"></circle><circle cx="30.704" cy="30.087" r="0.257"></circle><path d="M29.673,29.83c-0.139,0-0.256,0.115-0.256,0.258c0,0.142,0.117,0.257,0.256,0.257c0.145,0,0.26-0.115,0.26-0.257  C29.933,29.945,29.817,29.83,29.673,29.83z"></path><circle cx="28.646" cy="30.087" r="0.257"></circle><circle cx="46.146" cy="31.217" r="0.257"></circle><circle cx="45.114" cy="31.217" r="0.257"></circle><circle cx="44.085" cy="31.217" r="0.257"></circle><circle cx="43.056" cy="31.217" r="0.257"></circle><path d="M42.026,31.475c0.143,0,0.26-0.116,0.26-0.258c0-0.143-0.117-0.257-0.26-0.257c-0.141,0-0.256,0.114-0.256,0.257  C41.771,31.358,41.886,31.475,42.026,31.475z"></path><circle cx="40.999" cy="31.217" r="0.257"></circle><circle cx="39.97" cy="31.217" r="0.257"></circle><circle cx="38.94" cy="31.217" r="0.257"></circle><path d="M37.909,30.96c-0.143,0-0.256,0.114-0.256,0.257c0,0.142,0.113,0.258,0.256,0.258c0.145,0,0.258-0.116,0.258-0.258  C38.167,31.074,38.054,30.96,37.909,30.96z"></path><circle cx="36.88" cy="31.217" r="0.257"></circle><circle cx="35.851" cy="31.217" r="0.257"></circle><path d="M34.823,30.96c-0.143,0-0.26,0.114-0.26,0.257c0,0.142,0.117,0.258,0.26,0.258c0.141,0,0.256-0.116,0.256-0.258  C35.079,31.074,34.964,30.96,34.823,30.96z"></path><circle cx="33.792" cy="31.217" r="0.257"></circle><path d="M32.765,30.96c-0.145,0-0.26,0.114-0.26,0.257c0,0.142,0.115,0.258,0.26,0.258c0.141,0,0.256-0.116,0.256-0.258  C33.021,31.074,32.905,30.96,32.765,30.96z"></path><circle cx="31.733" cy="31.217" r="0.257"></circle><circle cx="30.704" cy="31.217" r="0.257"></circle><path d="M29.673,30.96c-0.139,0-0.256,0.114-0.256,0.257c0,0.142,0.117,0.258,0.256,0.258c0.145,0,0.26-0.116,0.26-0.258  C29.933,31.074,29.817,30.96,29.673,30.96z"></path><circle cx="28.646" cy="31.217" r="0.257"></circle><circle cx="43.056" cy="32.349" r="0.258"></circle><path d="M42.026,32.607c0.143,0,0.26-0.116,0.26-0.259c0-0.142-0.117-0.258-0.26-0.258c-0.141,0-0.256,0.116-0.256,0.258  C41.771,32.491,41.886,32.607,42.026,32.607z"></path><circle cx="40.999" cy="32.349" r="0.258"></circle><circle cx="39.97" cy="32.349" r="0.258"></circle><circle cx="38.94" cy="32.349" r="0.258"></circle><path d="M37.909,32.091c-0.143,0-0.256,0.116-0.256,0.258c0,0.143,0.113,0.259,0.256,0.259c0.145,0,0.258-0.116,0.258-0.259  C38.167,32.207,38.054,32.091,37.909,32.091z"></path><circle cx="36.88" cy="32.349" r="0.258"></circle><circle cx="35.851" cy="32.349" r="0.258"></circle><path d="M34.823,32.091c-0.143,0-0.26,0.116-0.26,0.258c0,0.143,0.117,0.259,0.26,0.259c0.141,0,0.256-0.116,0.256-0.259  C35.079,32.207,34.964,32.091,34.823,32.091z"></path><circle cx="33.792" cy="32.349" r="0.258"></circle><path d="M32.765,32.091c-0.145,0-0.26,0.116-0.26,0.258c0,0.143,0.115,0.259,0.26,0.259c0.141,0,0.256-0.116,0.256-0.259  C33.021,32.207,32.905,32.091,32.765,32.091z"></path><circle cx="31.733" cy="32.349" r="0.258"></circle><circle cx="30.704" cy="32.349" r="0.258"></circle><path d="M29.673,32.091c-0.139,0-0.256,0.116-0.256,0.258c0,0.143,0.117,0.259,0.256,0.259c0.145,0,0.26-0.116,0.26-0.259  C29.933,32.207,29.817,32.091,29.673,32.091z"></path><circle cx="39.97" cy="33.479" r="0.258"></circle><circle cx="38.94" cy="33.479" r="0.258"></circle><path d="M37.909,33.222c-0.143,0-0.256,0.116-0.256,0.258c0,0.143,0.113,0.258,0.256,0.258c0.145,0,0.258-0.115,0.258-0.258  C38.167,33.338,38.054,33.222,37.909,33.222z"></path><circle cx="36.88" cy="33.479" r="0.258"></circle><circle cx="35.851" cy="33.479" r="0.258"></circle><path d="M34.823,33.222c-0.143,0-0.26,0.116-0.26,0.258c0,0.143,0.117,0.258,0.26,0.258c0.141,0,0.256-0.115,0.256-0.258  C35.079,33.338,34.964,33.222,34.823,33.222z"></path><circle cx="33.792" cy="33.479" r="0.258"></circle><path d="M32.765,33.222c-0.145,0-0.26,0.116-0.26,0.258c0,0.143,0.115,0.258,0.26,0.258c0.141,0,0.256-0.115,0.256-0.258  C33.021,33.338,32.905,33.222,32.765,33.222z"></path><circle cx="31.733" cy="33.479" r="0.258"></circle><circle cx="30.704" cy="33.479" r="0.258"></circle><path d="M29.673,33.222c-0.139,0-0.256,0.116-0.256,0.258c0,0.143,0.117,0.258,0.256,0.258c0.145,0,0.26-0.115,0.26-0.258  C29.933,33.338,29.817,33.222,29.673,33.222z"></path><circle cx="36.88" cy="34.61" r="0.257"></circle><circle cx="35.851" cy="34.61" r="0.257"></circle><path d="M34.823,34.353c-0.143,0-0.26,0.115-0.26,0.258c0,0.142,0.117,0.257,0.26,0.257c0.141,0,0.256-0.115,0.256-0.257  C35.079,34.468,34.964,34.353,34.823,34.353z"></path><circle cx="33.792" cy="34.61" r="0.257"></circle><path d="M32.765,34.353c-0.145,0-0.26,0.115-0.26,0.258c0,0.142,0.115,0.257,0.26,0.257c0.141,0,0.256-0.115,0.256-0.257  C33.021,34.468,32.905,34.353,32.765,34.353z"></path><circle cx="31.733" cy="34.61" r="0.257"></circle><circle cx="30.704" cy="34.61" r="0.257"></circle><path d="M29.673,34.353c-0.139,0-0.256,0.115-0.256,0.258c0,0.142,0.117,0.257,0.256,0.257c0.145,0,0.26-0.115,0.26-0.257  C29.933,34.468,29.817,34.353,29.673,34.353z"></path><circle cx="35.851" cy="35.74" r="0.258"></circle><path d="M34.823,35.481c-0.143,0-0.26,0.116-0.26,0.259c0,0.142,0.117,0.258,0.26,0.258c0.141,0,0.256-0.116,0.256-0.258  C35.079,35.598,34.964,35.481,34.823,35.481z"></path><circle cx="33.792" cy="35.74" r="0.258"></circle><path d="M32.765,35.481c-0.145,0-0.26,0.116-0.26,0.259c0,0.142,0.115,0.258,0.26,0.258c0.141,0,0.256-0.116,0.256-0.258  C33.021,35.598,32.905,35.481,32.765,35.481z"></path><circle cx="31.733" cy="35.74" r="0.258"></circle><circle cx="30.704" cy="35.74" r="0.258"></circle><circle cx="35.851" cy="36.87" r="0.258"></circle><path d="M34.823,36.612c-0.143,0-0.26,0.116-0.26,0.259c0,0.142,0.117,0.257,0.26,0.257c0.141,0,0.256-0.115,0.256-0.257  C35.079,36.729,34.964,36.612,34.823,36.612z"></path><circle cx="33.792" cy="36.87" r="0.258"></circle><path d="M32.765,36.612c-0.145,0-0.26,0.116-0.26,0.259c0,0.142,0.115,0.257,0.26,0.257c0.141,0,0.256-0.115,0.256-0.257  C33.021,36.729,32.905,36.612,32.765,36.612z"></path><circle cx="31.733" cy="36.87" r="0.258"></circle><circle cx="30.704" cy="36.87" r="0.258"></circle><circle cx="35.851" cy="38.001" r="0.257"></circle><path d="M34.823,37.744c-0.143,0-0.26,0.115-0.26,0.257c0,0.143,0.117,0.257,0.26,0.257c0.141,0,0.256-0.114,0.256-0.257  C35.079,37.859,34.964,37.744,34.823,37.744z"></path><circle cx="33.792" cy="38.001" r="0.257"></circle><path d="M32.765,37.744c-0.145,0-0.26,0.115-0.26,0.257c0,0.143,0.115,0.257,0.26,0.257c0.141,0,0.256-0.114,0.256-0.257  C33.021,37.859,32.905,37.744,32.765,37.744z"></path><circle cx="31.733" cy="38.001" r="0.257"></circle><path d="M34.823,38.873c-0.143,0-0.26,0.115-0.26,0.257c0,0.143,0.117,0.259,0.26,0.259c0.141,0,0.256-0.116,0.256-0.259  C35.079,38.988,34.964,38.873,34.823,38.873z"></path><circle cx="33.792" cy="39.131" r="0.258"></circle><path d="M32.765,38.873c-0.145,0-0.26,0.115-0.26,0.257c0,0.143,0.115,0.259,0.26,0.259c0.141,0,0.256-0.116,0.256-0.259  C33.021,38.988,32.905,38.873,32.765,38.873z"></path><circle cx="31.733" cy="39.131" r="0.258"></circle><path d="M34.823,40.004c-0.143,0-0.26,0.115-0.26,0.257c0,0.143,0.117,0.258,0.26,0.258c0.141,0,0.256-0.115,0.256-0.258  C35.079,40.119,34.964,40.004,34.823,40.004z"></path><circle cx="33.792" cy="40.261" r="0.257"></circle><path d="M32.765,40.004c-0.145,0-0.26,0.115-0.26,0.257c0,0.143,0.115,0.258,0.26,0.258c0.141,0,0.256-0.115,0.256-0.258  C33.021,40.119,32.905,40.004,32.765,40.004z"></path><circle cx="33.792" cy="41.391" r="0.258"></circle><path d="M32.765,41.133c-0.145,0-0.26,0.116-0.26,0.259c0,0.142,0.115,0.258,0.26,0.258c0.141,0,0.256-0.116,0.256-0.258  C33.021,41.249,32.905,41.133,32.765,41.133z"></path><circle cx="33.792" cy="42.521" r="0.258"></circle><path d="M32.765,42.264c-0.145,0-0.26,0.116-0.26,0.259c0,0.142,0.115,0.257,0.26,0.257c0.141,0,0.256-0.115,0.256-0.257  C33.021,42.38,32.905,42.264,32.765,42.264z"></path></svg>