<svg height='100px' width='100px'  fill="#333333" xmlns="http://www.w3.org/2000/svg" viewBox="0 0 68 48" x="0px" y="0px"><path fill="#333333" fill-rule="evenodd" d="M715,790 L710.999807,790 C710.447629,790 710,789.556647 710,788.990631 L710,787.009369 C710,786.45191 710.449949,786 711.006845,786 L722.993155,786 C723.54922,786 724,786.443353 724,787.009369 L724,788.990631 C724,789.54809 723.556283,790 723.000193,790 L719,790 L719,830 L723.000193,830 C723.552371,830 724,830.443353 724,831.009369 L724,832.990631 C724,833.54809 723.550051,834 722.993155,834 L711.006845,834 C710.45078,834 710,833.556647 710,832.990631 L710,831.009369 C710,830.45191 710.443717,830 710.999807,830 L715,830 L715,790 Z M658,798 C656.895431,798 656,798.895431 656,800 L656,820 C656,821.104569 656.895431,822 658,822 L701,822 C702.104569,822 703,821.104569 703,820 L703,800 C703,798.895431 702.104569,798 701,798 L658,798 Z" transform="translate(-656 -786)"></path></svg>