<svg height='100px' width='100px'  fill="#333333" xmlns="http://www.w3.org/2000/svg" xmlns:xlink="http://www.w3.org/1999/xlink" version="1.1" x="0px" y="0px" viewBox="0 0 90 90" style="enable-background:new 0 0 90 90;" xml:space="preserve"><title>Risorsa 2</title><g><path d="M65.5,23.3c-0.8-0.8-2.1-0.8-2.9,0l-15,14.9c-3.7-2.1-8.3-0.8-10.4,2.9c-2.1,3.7-0.8,8.3,2.9,10.4   c3.7,2.1,8.3,0.8,10.4-2.9c0.8-1.4,1.2-3.1,0.9-4.8c-0.1-1-0.4-1.9-0.9-2.7l15-14.9C66.3,25.4,66.3,24.2,65.5,23.3z"></path><path d="M88.9,46.8c-0.3-0.1-0.6-0.1-0.9,0l-13.5,3.6c-0.8,0.2-1.3,1.1-1.1,1.9c0.1,0.2,0.2,0.4,0.3,0.6c0,0,0,0.1,0.1,0.1l1.5,1.6   l1.6,1.6L61.3,71.8L49.8,60.3c-1-1-2.7-1-3.7,0L21.8,84.6c-0.5,0.5-0.8,1.1-0.8,1.8c0,1.4,1.2,2.6,2.6,2.6c0.7,0,1.3-0.3,1.8-0.7   L48,65.8l11.5,11.5c1,1,2.6,1,3.6,0l17.5-17.5l1.6,1.6l1.5,1.5l0.2,0.1c0.7,0.5,1.7,0.4,2.2-0.3c0.1-0.2,0.2-0.3,0.3-0.5L90,48.7   C90.2,47.9,89.7,47,88.9,46.8z"></path><path d="M23.1,66.1c-0.3-0.4-0.8-0.6-1.3-0.7c-0.5,0-1.1,0.1-1.5,0.4c-0.1,0-0.1,0.1-0.1,0.1l-5.5,5.4l-1.6-2   C8.6,63.6,5.8,56.7,5,49.5L4.6,47h8c1.1-0.2,1.8-1.2,1.7-2.4c-0.1-0.8-0.8-1.5-1.7-1.7h-8l0.3-2.5c0.8-7.2,3.6-14.1,8.1-19.9l1.6-2   l5.5,5.5c0.8,0.8,2,0.8,2.8,0l0.1-0.1c0.6-0.9,0.5-2.1-0.2-2.8l-5.3-5.4l2-1.6C25.2,9.6,32.1,6.8,39.3,6L42,5.6v7.8   c0,1.1,0.9,2,2,2s2-0.9,2-2V5.5L50.1,6c8.2,1.3,15.8,5.3,21.6,11.2l0.2,0.2c5.1,5.1,8.7,11.5,10.4,18.5l0.1,0.3   c0.2,1.2,1.4,2.1,2.6,1.9c0.6-0.1,1.2-0.5,1.6-1c0.4-0.5,0.5-1.2,0.4-1.8l-0.1-0.2C82.2,15.1,64.5,1,44.1,0.9C19.8,0.9,0,20.6,0,45   c0,3.3,0.4,6.7,1.1,9.9C3,62.9,7,70.2,12.9,76.1c0.8,0.8,2,0.8,2.8,0l7.2-7.1C23.7,68.2,23.8,67,23.1,66.1z"></path></g></svg>