<svg height='100px' width='100px'  fill="#333333" xmlns="http://www.w3.org/2000/svg" xmlns:xlink="http://www.w3.org/1999/xlink" version="1.1" x="0px" y="0px" viewBox="0 0 100 100" style="enable-background:new 0 0 100 100;" xml:space="preserve"><path d="M93.5,98.6h-87c-2.6,0-4.8-2-4.8-4.6V50c0-2.5,2.1-4.6,4.8-4.6s4.8,2,4.8,4.6v39.5h77.5V50  c0-2.5,2.1-4.6,4.8-4.6s4.8,2,4.8,4.6v44C98.2,96.5,96.1,98.6,93.5,98.6z"></path><path d="M72,21.3L53.5,2.8c-1.8-1.8-4.8-1.8-6.7,0L28.1,21.3c-0.9,0.9-1.4,2.1-1.4,3.4c0,1.3,0.5,2.4,1.4,3.3  c0.9,0.9,2.1,1.4,3.3,1.4c1.3,0,2.5-0.5,3.4-1.4L45,17.9v47.5c0,2.8,2.2,5,5,5s5-2.2,5-5V17.7L65.3,28c1.8,1.8,4.8,1.8,6.7,0  c0.9-0.9,1.4-2.1,1.4-3.3C73.4,23.4,72.9,22.2,72,21.3z"></path></svg>