<svg height='100px' width='100px'  id="nr-icon"  fill="#7E8C9F" xmlns="http://www.w3.org/2000/svg" xmlns:xlink="http://www.w3.org/1999/xlink" version="1.1" x="0px" y="0px" viewBox="0 0 90 90" enable-background="new 0 0 90 90" xml:space="preserve"><g><path d="M50,55H24.396l11.227-33h0.062l1.626,5H50V16.932c-1.492-4.304-2.416-6.964-2.416-6.964   c-0.244-0.776-0.541-1.39-0.889-1.841c-0.348-0.449-0.92-0.787-1.719-1.012c-0.797-0.224-16.398-0.224-17.114,0   c-0.716,0.225-1.238,0.552-1.564,0.981c-0.328,0.43-0.613,0.992-0.859,1.687c0,0-25.274,73-25.397,73.86   c-0.123,0.858,0.021,1.523,0.43,1.993c0.409,0.471,12.811,0.715,13.404,0.49c0.592-0.224,1.022-0.654,1.288-1.043   C15.43,84.695,20.838,68,20.838,68H50V55z"></path><path d="M69.727,74H52.602c1.678,4.936,3.852,11.284,4,11.483c0.246,0.327,0.676,0.582,1.289,0.767s14.211-0.062,14.662-0.491   c0.449-0.429,0.613-1.073,0.49-1.932C73.016,83.635,71.719,79.81,69.727,74z"></path></g><polygon points="89,34 71,34 71,16 58,16 58,34 40,34 40,47 58,47 58,65 71,65 71,47 89,47 "></polygon>
<script> <![CDATA[ var nrcolor = location.hash.substring(1).replace("*", "#");
   if (nrcolor.length > 0){document.getElementById("nr-icon").setAttribute('fill', nrcolor);}
    ]]> </script>
</svg>