<svg height='100px' width='100px'  fill="#FFFFFF" xmlns="http://www.w3.org/2000/svg" viewBox="0 0 50 68" x="0px" y="0px"><path fill="#333333" d="M684,1054 C695.141818,1054 701.853145,1061.82988 703.979899,1076.71716 C704.097135,1077.53781 703.695949,1078.34572 702.971286,1078.74831 C696.683885,1082.24132 690.352619,1084 684,1084 C677.647381,1084 671.316115,1082.24132 665.028714,1078.74831 C664.304051,1078.34572 663.902865,1077.53781 664.020101,1076.71716 C666.146855,1061.82988 672.858182,1054 684,1054 Z M684,1050 C677.372583,1050 672,1044.62742 672,1038 C672,1031.37258 677.372583,1026 684,1026 C690.627417,1026 696,1031.37258 696,1038 C696,1044.62742 690.627417,1050 684,1050 Z M696.020815,1025.97918 C695.239767,1025.19814 695.239767,1023.93181 696.020815,1023.15076 C696.801864,1022.36971 698.068194,1022.36971 698.849242,1023.15076 C707.050253,1031.35177 707.050253,1044.64823 698.849242,1052.84924 C698.068194,1053.63029 696.801864,1053.63029 696.020815,1052.84924 C695.239767,1052.06819 695.239767,1050.80186 696.020815,1050.02082 C702.659728,1043.3819 702.659728,1032.6181 696.020815,1025.97918 Z M702.384776,1019.61522 C701.603728,1018.83418 701.603728,1017.56785 702.384776,1016.7868 C703.165825,1016.00575 704.432155,1016.00575 705.213203,1016.7868 C716.928932,1028.50253 716.928932,1047.49747 705.213203,1059.2132 C704.432155,1059.99425 703.165825,1059.99425 702.384776,1059.2132 C701.603728,1058.43215 701.603728,1057.16582 702.384776,1056.38478 C712.538408,1046.23114 712.538408,1029.76886 702.384776,1019.61522 Z" transform="translate(-664 -1016)"></path></svg>